<svg
      xmlns="http://www.w3.org/2000/svg"
      width="38"
      height="48"
      version="1.1"
      viewBox="0 0 38 48"
    >
  <defs>
    <clipPath>
      <path d="M0 1600h1600V0H0z"></path>
    </clipPath>
  </defs>
  <g transform="matrix(.24628 0 0 -.24628 -106.245 221.781)">
    <path
      fill="#00b2ef"
      d="M0 0l-32.888 14.243L0 71.209l28.15-49.011 12.875 5.567-31.834 55.39A10.643 10.643 0 010 88.461c-3.777 0-7.298-2.03-9.192-5.306l-36.567-63.339-15.685 6.792L0 133.028l61.445-106.42zm54.815-23.734L17.529-7.592l22.375 9.688zm20.557 54.081L9.191 144.977A10.643 10.643 0 010 150.283c-3.777 0-7.298-2.03-9.187-5.306l-66.19-114.63a10.642 10.642 0 01-.882-8.637 10.643 10.643 0 015.856-6.406L-17.53-7.587l-37.286-16.142L-44.225-5.27-57.1.297-71.905-25.46a10.61 10.61 0 011.273-12.376 10.59 10.59 0 017.913-3.548c1.421 0 2.858.288 4.224.876l51.532 22.314v-25.104a6.966 6.966 0 0113.932 0v25.102l51.52-22.307a10.588 10.588 0 0112.142 2.667 10.61 10.61 0 011.274 12.376L52.775 7.673l17.629 7.631a10.642 10.642 0 015.854 6.406 10.633 10.633 0 01-.886 8.642"
      transform="translate(508.13 749.99)"
    ></path>
  </g>
</svg>
